<svg xmlns="http://www.w3.org/2000/svg" xmlns:xlink="http://www.w3.org/1999/xlink" width="122" height="32" viewBox="0 0 122 32">
  <defs>
    <polygon id="logo-a" points="0 0 23.158 0 23.158 31.554 0 31.554"/>
    <polygon id="logo-c" points=".113 0 7.105 0 7.105 31.554 .113 31.554"/>
    <polygon id="logo-e" points=".077 0 7.069 0 7.069 31.554 .077 31.554"/>
    <polygon id="logo-g" points=".078 .084 25.61 .084 25.61 24.409 .078 24.409"/>
  </defs>
  <g fill="none" fill-rule="evenodd">
    <mask id="logo-b" fill="#fff">
      <use xlink:href="#logo-a"/>
    </mask>
    <path fill="#000" d="M22.7167419,29.59952 L22.75361,29.59952 L13.249743,17.3752738 L20.8051292,9.38561231 C20.939575,9.22610462 21.0283043,9.10327385 21.0715629,9.01736615 C21.11433,8.93158154 21.1358364,8.82093538 21.1358364,8.68592 C21.1358364,8.15828923 20.7986159,7.89441231 20.1247893,7.89441231 L14.4813844,7.89441231 C14.0403186,7.89441231 13.6602082,8.07238154 13.3416675,8.42807385 L6.99137758,15.4945354 L6.99137758,1.54942769 C6.99137758,0.536750769 6.03698454,-0.203433846 5.05801275,0.0502276923 L1.15908491,1.05995077 C0.476655788,1.23668923 -4.91575092e-05,1.85318154 -4.91575092e-05,2.55915077 L-4.91575092e-05,30.00592 C-4.91575092e-05,30.8609354 0.692334359,31.5543508 1.54632319,31.5543508 L5.44525103,31.5543508 C6.29911696,31.5543508 6.99137758,30.8609354 6.99137758,30.00592 L6.99137758,23.6905969 L8.81954535,21.7936123 L14.8306485,30.3175508 C15.0513657,30.6368123 15.2535259,30.8761969 15.437375,31.0355815 C15.6212241,31.1949662 15.8169939,31.27472 16.0255446,31.27472 L22.238808,31.27472 C22.5449364,31.27472 22.7747477,31.2226585 22.9282421,31.1182892 C23.0812448,31.0141662 23.1579305,30.8208123 23.1579305,30.5383508 C23.1579305,30.4034585 23.1240118,30.2529354 23.0567889,30.0873969 C22.9893203,29.9216123 22.8758893,29.7591508 22.7167419,29.59952" mask="url(#logo-b)"/>
    <g transform="translate(50.755)">
      <mask id="logo-d" fill="#fff">
        <use xlink:href="#logo-c"/>
      </mask>
      <path fill="#000" d="M5.17113647,0.0501169231 L1.27208573,1.05996308 C0.589779505,1.23670154 0.11307456,1.85331692 0.11307456,2.55916308 L0.11307456,30.0059323 C0.11307456,30.8611938 0.805458077,31.55424 1.65920112,31.55424 L5.55812896,31.55424 C6.41224068,31.55424 7.1045013,30.8611938 7.1045013,30.0059323 L7.1045013,1.54931692 C7.1045013,0.536763077 6.14986247,-0.203421538 5.17113647,0.0501169231" mask="url(#logo-d)"/>
    </g>
    <g transform="translate(62.061)">
      <mask id="logo-f" fill="#fff">
        <use xlink:href="#logo-e"/>
      </mask>
      <path fill="#000" d="M5.13542353,0.0501169231 L1.2363728,1.05996308 C0.554066575,1.23670154 0.07736163,1.85331692 0.07736163,2.55916308 L0.07736163,30.0059323 C0.07736163,30.8611938 0.769745147,31.55424 1.62373397,31.55424 L5.52241603,31.55424 C6.37652775,31.55424 7.06866548,30.8611938 7.06866548,30.0059323 L7.06866548,1.54931692 C7.06866548,0.536763077 6.11414954,-0.203421538 5.13542353,0.0501169231" mask="url(#logo-f)"/>
    </g>
    <g transform="translate(95.488 7.508)">
      <mask id="logo-h" fill="#fff">
        <use xlink:href="#logo-g"/>
      </mask>
      <path fill="#000" d="M24.8197984,17.8657477 C24.2235178,16.0818708 23.2913686,14.5216246 22.048421,13.2284554 C21.6069865,12.7695015 21.1247514,12.3447631 20.6065083,11.9559631 C20.5948334,11.9473477 20.5832814,11.9387323 20.5717294,11.9299938 C20.5022944,11.8749785 20.328031,11.7394708 20.0940413,11.5810708 C19.9464459,11.4812554 19.775009,11.3727015 19.5914058,11.2691938 C19.3477074,11.1207631 19.0976186,10.9795938 18.8415079,10.8456862 C19.2442308,10.8698092 19.8673023,10.9341785 20.3410578,11.1041477 L25.0945889,1.92900923 C25.4150959,1.31054769 25.0025415,0.565316923 24.3091748,0.509809231 L19.0287981,0.0866707692 C18.6348006,0.0552861538 18.2605891,0.265747692 18.0828847,0.619593846 L14.4443688,7.85725538 L10.167051,1.41430154 C9.94657956,1.08199385 9.54582297,0.918055385 9.15600392,1.00064 L4.23804092,2.04433231 C3.56261674,2.18759385 3.24739421,2.97085538 3.63500117,3.54328615 L9.43546436,12.1091938 C8.73447828,12.7883323 7.9230107,13.3697477 7.05439751,13.6272246 C6.02909476,13.9308554 4.97073359,13.8399015 3.77018432,13.2792862 C3.55278524,13.1778708 3.29642883,13.2200862 3.1193389,13.3821785 C1.83866289,14.5559631 0.735814176,16.6215631 0.134863626,17.8891323 C-0.00130267399,18.1761477 0.113848791,18.5203938 0.395275531,18.6673477 C1.76504952,19.3836554 3.15129128,19.8119631 4.52585813,20.0122092 C5.04299513,20.0876554 5.55878029,20.1250708 6.0717389,20.1250708 C7.07455209,20.1250708 8.06655062,19.9813169 9.03483066,19.6944246 C11.5464107,18.9504246 13.4967349,17.3887015 14.9093988,15.8379323 C15.8378612,16.1579323 16.8409202,16.6800246 17.6477178,17.5323323 C18.9163503,18.8727631 19.5233226,20.8765785 19.454625,23.4945477 C19.4461453,23.8139323 19.6907039,24.0834708 20.0092446,24.10304 L24.9697288,24.4076554 C25.3024023,24.4280862 25.5860411,24.1691323 25.5972244,23.8354708 C25.6721896,21.6415015 25.4111633,19.63584 24.8197984,17.8657477" mask="url(#logo-h)"/>
    </g>
    <path fill="#000" d="M43.6046646 11.3165292C42.52025 10.2302523 41.2454729 9.37757538 39.7811936 8.75751385 38.3166685 8.13806769 36.7508789 7.82791385 35.0844394 7.82791385 33.956889 7.82791385 32.8754238 7.96908308 31.8399209 8.25142154 30.8041721 8.53388308 29.8392102 8.93252923 28.9447894 9.44785231 28.0501227 9.96342154 27.2380406 10.5864369 26.5090348 11.3165292 25.779906 12.0468677 25.1547454 12.85696 24.6340445 13.7466831 24.1129749 14.6367754 23.7086544 15.6032985 23.4208372 16.6462523 23.1326513 17.6894523 22.9888655 18.7756062 22.9888655 19.9048369 22.9888655 21.0340677 23.1326513 22.1171446 23.4208372 23.1539446 23.7086544 24.1912369 24.1129749 25.15776 24.6340445 26.0536369 25.1547454 26.9496369 25.779906 27.7628062 26.5090348 28.4930215 27.2380406 29.22336 28.0501227 29.8493292 28.9447894 30.3708062 29.8392102 30.8924062 30.8041721 31.2944985 31.8399209 31.5764677 32.8754238 31.8588062 33.956889 31.9999754 35.0844394 31.9999754 36.1994546 31.9999754 37.2687533 31.8588062 38.2922126 31.5764677 39.3153033 31.2944985 40.2742434 30.8924062 41.1689101 30.3708062 42.0634538 29.8493292 42.875413 29.22336 43.6046646 28.4930215 44.3336705 27.7628062 44.9587082 26.9496369 45.4796549 26.0536369 46.0003558 25.15776 46.4049221 24.1912369 46.6928623 23.1539446 46.9808024 22.1171446 47.1250797 21.0340677 47.1250797 19.9048369 47.1250797 18.1987446 46.8092427 16.6126523 46.178306 15.1456985 45.5468778 13.6792369 44.6893251 12.4028062 43.6046646 11.3165292M39.854684 22.1783138C39.6156557 22.88416 39.2725362 23.4947446 38.8253258 24.0100677 38.3777467 24.5255138 37.8325899 24.93376 37.189241 25.2344369 36.5458921 25.53536 35.8259804 25.6855138 35.0295058 25.6855138 34.2082068 25.6855138 33.4696152 25.53536 32.8142227 25.2344369 32.1583386 24.93376 31.6010154 24.5255138 31.1413927 24.0100677 30.6818928 23.4947446 30.3262383 22.88416 30.0751663 22.1783138 29.8238485 21.4728369 29.698374 20.7146831 29.698374 19.9048369 29.698374 19.11936 29.8238485 18.3706831 30.0751663 17.6588062 30.3262383 16.9471754 30.6818928 16.3210831 31.1413927 15.7807754 31.6010154 15.24096 32.1583386 14.8144985 32.8142227 14.5013908 33.4696152 14.1885292 34.2082068 14.0319754 35.0295058 14.0319754 35.8259804 14.0319754 36.5458921 14.1885292 37.189241 14.5013908 37.8325899 14.8144985 38.3777467 15.24096 38.8253258 15.7807754 39.2725362 16.3210831 39.6156557 16.9471754 39.854684 17.6588062 40.0935895 18.3706831 40.2131652 19.11936 40.2131652 19.9048369 40.2131652 20.7146831 40.0935895 21.4728369 39.854684 22.1783138M94.5972973 21.9021662C94.9952274 21.8101046 95.2803409 21.6444431 95.4520235 21.4051815 95.6235832 21.1657969 95.7185801 20.8435815 95.7368913 20.4386585 95.7552025 20.0334892 95.7645424 19.5120123 95.7645424 18.8738585 95.7645424 17.8920738 95.6266556 16.9379815 95.350882 16.0109662 95.0752312 15.0844431 94.6860266 14.2131815 94.1836369 13.3968123 93.6810014 12.5808123 93.0806653 11.8291815 92.38226 11.1416738 91.6836089 10.4545354 90.9145397 9.86524308 90.0750523 9.37428923 89.2356878 8.88345846 88.3379488 8.50302769 87.3822039 8.23287385 86.4262133 7.96321231 85.4394992 7.82782769 84.4225532 7.82782769 83.3071693 7.82782769 82.2472105 7.97527385 81.242431 8.26979692 80.2375287 8.56419692 79.305871 8.97552 78.4481953 9.50315077 77.5902739 10.0309046 76.8151829 10.6662277 76.1229223 11.4086277 75.4302929 12.1512738 74.8422462 12.9640738 74.3582906 13.8480123 73.8739662 14.7314585 73.5001234 15.6796431 73.2368849 16.6921969 72.9731549 17.7047508 72.8416585 18.7510277 72.8416585 19.8310277 72.8416585 21.5616123 73.1726114 23.1632123 73.8342715 24.6360738 74.4960545 26.1089354 75.3904754 27.38832 76.5181486 28.4745969 77.645699 29.5606277 78.9566069 30.4105969 80.4518554 31.0241354 81.946981 31.63792 83.5337854 31.9447508 85.213006 31.9447508 86.720421 31.9447508 88.147955 31.6654892 89.4962226 31.1070892 90.8441215 30.5486892 92.0573288 29.77232 93.1358446 28.7781046 93.3196937 28.6432123 93.4788411 28.4867815 93.6137785 28.3089354 93.7485929 28.1310892 93.8160616 27.9193969 93.8160616 27.6736123 93.8160616 27.53872 93.7976276 27.4067815 93.7608823 27.27792 93.7241371 27.1489354 93.6382343 27.0049354 93.5035428 26.8453046L91.5549391 24.6360738C91.3462655 24.4275815 91.1597127 24.2679508 90.9942977 24.1574277 90.8290056 24.0469046 90.6662942 23.9917662 90.5070239 23.9917662 90.3476307 23.9917662 90.1975774 24.0316431 90.0567411 24.1113969 89.9156591 24.19152 89.7472946 24.3109046 89.5511561 24.4702892 89.3308076 24.6912123 89.0393036 24.9030277 88.6779959 25.1053662 88.3165653 25.3080738 87.9180208 25.4860431 87.4830997 25.6392738 87.0480558 25.7929969 86.597773 25.9154585 86.1320056 26.00752 85.6661153 26.0995815 85.213006 26.1457354 84.7719402 26.1457354 84.281594 26.1457354 83.7607702 26.0782892 83.2093459 25.9431508 82.6579215 25.8082585 82.136729 25.5842585 81.6467516 25.2711508 81.1565283 24.9582892 80.7244338 24.5378585 80.3509596 24.0101046 79.9769939 23.4824738 79.7286255 22.8258585 79.6063462 22.0402585L92.8417598 22.0402585C93.6137785 22.0402585 94.1988757 21.9942277 94.5972973 21.9021662zM79.8269406 16.8119508C80.0228332 16.39472 80.2774691 15.98352 80.5898651 15.5783508 80.902384 15.1734277 81.2544746 14.8115815 81.6467516 14.49232 82.0390285 14.1733046 82.4584649 13.9186585 82.9059212 13.7282585 83.3531316 13.5379815 83.8159495 13.4428431 84.2940063 13.4428431 84.9557893 13.4428431 85.5348647 13.5288738 86.0311098 13.7005662 86.5273549 13.8726277 86.9685435 14.1120123 87.3545528 14.4185969 87.7405622 14.7255508 88.0835587 15.0813662 88.3839111 15.4862892 88.6841406 15.8914585 88.9629865 16.3333046 89.220449 16.8119508L79.8269406 16.8119508z"/>
  </g>
</svg>
